<svg id="create" xmlns="http://www.w3.org/2000/svg" width="17.231" height="17.231" viewBox="0 0 17.231 17.231">
  <path id="Path_44" data-name="Path 44" d="M16.889,6.609a1.133,1.133,0,0,0-.832-.343H10.965V1.175a1.133,1.133,0,0,0-.343-.832A1.133,1.133,0,0,0,9.79,0H7.441a1.133,1.133,0,0,0-.832.343,1.133,1.133,0,0,0-.343.832V6.266H1.175a1.133,1.133,0,0,0-.832.343A1.133,1.133,0,0,0,0,7.441v2.35a1.132,1.132,0,0,0,.343.832,1.133,1.133,0,0,0,.832.343H6.266v5.091a1.169,1.169,0,0,0,1.175,1.175H9.79a1.169,1.169,0,0,0,1.175-1.175V10.965h5.091a1.17,1.17,0,0,0,1.175-1.175V7.441A1.132,1.132,0,0,0,16.889,6.609Z" fill="#fff"/>
</svg>
