<svg xmlns="http://www.w3.org/2000/svg" width="28.331" height="37.249" viewBox="0 0 28.331 37.249">
  <g id="man-user" transform="translate(-41.895)">
    <path id="Path_53" data-name="Path 53" d="M112.034,18.217c4.141,0,7.5-4.078,7.5-9.108S118.431,0,112.034,0s-7.5,4.078-7.5,9.109S107.893,18.217,112.034,18.217Z" transform="translate(-55.973)" fill="#fff"/>
    <path id="Path_54" data-name="Path 54" d="M41.9,300.53c0-.307,0-.086,0,0Z" transform="translate(0 -268.405)" fill="#fff"/>
    <path id="Path_55" data-name="Path 55" d="M308.085,301.765c0-.084,0-.583,0,0Z" transform="translate(-237.861 -269.4)" fill="#fff"/>
    <path id="Path_56" data-name="Path 56" d="M70.22,190.581c-.139-8.763-1.283-11.26-10.041-12.841a5.25,5.25,0,0,1-4.106,1.571,5.251,5.251,0,0,1-4.107-1.571C43.3,179.3,42.089,181.763,41.93,190.3c-.013.7-.019.733-.021.652,0,.152,0,.432,0,.921,0,0,2.085,4.2,14.163,4.2s14.163-4.2,14.163-4.2c0-.314,0-.532,0-.681A5.648,5.648,0,0,1,70.22,190.581Z" transform="translate(-0.012 -158.824)" fill="#fff"/>
  </g>
</svg>
