<svg xmlns="http://www.w3.org/2000/svg" width="35.54" height="27.925" viewBox="0 0 35.54 27.925">
  <g id="newrequests" transform="translate(0 -54.814)">
    <g id="Group_63" data-name="Group 63" transform="translate(0 54.814)">
      <path id="Path_23" data-name="Path 23" d="M8.25,201H1.9a1.836,1.836,0,0,0-1.349.555A1.835,1.835,0,0,0,0,202.9v3.808a1.835,1.835,0,0,0,.555,1.348,1.837,1.837,0,0,0,1.349.555H8.25a1.9,1.9,0,0,0,1.9-1.9V202.9a1.9,1.9,0,0,0-1.9-1.9Z" transform="translate(0 -190.844)" fill="#6d8fff"/>
      <path id="Path_24" data-name="Path 24" d="M8.25,54.814H1.9a1.836,1.836,0,0,0-1.349.555A1.836,1.836,0,0,0,0,56.718v3.808a1.836,1.836,0,0,0,.555,1.349A1.837,1.837,0,0,0,1.9,62.43H8.25a1.9,1.9,0,0,0,1.9-1.9V56.718a1.9,1.9,0,0,0-1.9-1.9Z" transform="translate(0 -54.814)" fill="#6d8fff"/>
      <path id="Path_25" data-name="Path 25" d="M8.25,347.177H1.9a1.836,1.836,0,0,0-1.349.555A1.836,1.836,0,0,0,0,349.081v3.808a1.835,1.835,0,0,0,.555,1.348,1.835,1.835,0,0,0,1.349.555H8.25a1.9,1.9,0,0,0,1.9-1.9v-3.808a1.9,1.9,0,0,0-1.9-1.9Z" transform="translate(0 -326.868)" fill="#6d8fff"/>
      <path id="Path_26" data-name="Path 26" d="M203.668,201H184.629a1.9,1.9,0,0,0-1.9,1.9v3.808a1.9,1.9,0,0,0,1.9,1.9h19.04a1.9,1.9,0,0,0,1.9-1.9V202.9a1.9,1.9,0,0,0-1.9-1.9Z" transform="translate(-170.032 -190.844)" fill="#6d8fff"/>
      <path id="Path_27" data-name="Path 27" d="M203.668,347.177H184.629a1.9,1.9,0,0,0-1.9,1.9v3.808a1.895,1.895,0,0,0,1.9,1.9h19.04a1.9,1.9,0,0,0,1.9-1.9v-3.808a1.9,1.9,0,0,0-1.9-1.9Z" transform="translate(-170.032 -326.868)" fill="#6d8fff"/>
      <path id="Path_28" data-name="Path 28" d="M205.017,55.373a1.836,1.836,0,0,0-1.349-.555H184.629a1.9,1.9,0,0,0-1.9,1.9V60.53a1.9,1.9,0,0,0,1.9,1.9h19.04a1.9,1.9,0,0,0,1.9-1.9V56.722A1.835,1.835,0,0,0,205.017,55.373Z" transform="translate(-170.032 -54.818)" fill="#6d8fff"/>
    </g>
  </g>
</svg>
