<svg xmlns="http://www.w3.org/2000/svg" width="30.954" height="36.031" viewBox="0 0 30.954 36.031">
  <g id="database" transform="translate(-4.1)">
    <path id="Path_57" data-name="Path 57" d="M21.191,31.139q-.808.025-1.613.026c-.538,0-1.078-.009-1.618-.026A36.333,36.333,0,0,1,7.185,29.457,12.652,12.652,0,0,1,4.1,28v5.819c1.762,1.839,7.673,3.536,15.477,3.536s13.715-1.7,15.477-3.536V28a12.682,12.682,0,0,1-3.111,1.465A36.4,36.4,0,0,1,21.191,31.139Z" transform="translate(0 -10.666)" fill="#fff"/>
    <path id="Path_58" data-name="Path 58" d="M4.1,14.889v5.819c1.633,1.7,6.83,3.287,13.8,3.509l.216,0c.2.006.4.011.608.014q.424.007.856.007t.856-.007c.2,0,.406-.009.608-.014l.216,0c6.966-.222,12.163-1.8,13.8-3.509v-5.82c-3.013,2.07-9.383,3.164-15.477,3.164S7.114,16.959,4.1,14.889Z" transform="translate(0 -5.672)" fill="#fff"/>
    <path id="Path_59" data-name="Path 59" d="M34.97,5.288C34.275,2.625,28.934,0,19.577,0,10.243,0,4.907,2.612,4.191,5.268a.6.6,0,0,0-.091.3V7c1.756,1.833,7.625,3.525,15.477,3.525S33.3,8.832,35.054,7V5.572A.57.57,0,0,0,34.97,5.288Z" fill="#fff"/>
    <path id="Path_60" data-name="Path 60" d="M4.1,41v5.077a.582.582,0,0,0,.072.279c.731,3.03,7.272,5.292,15.4,5.292,8.114,0,14.644-2.253,15.4-5.272a.615.615,0,0,0,.077-.3V41c-2.56,1.8-7.834,3.219-15.477,3.219S6.659,42.8,4.1,41Z" transform="translate(0 -15.618)" fill="#fff"/>
  </g>
</svg>
