<svg xmlns="http://www.w3.org/2000/svg" width="36.031" height="36.031" viewBox="0 0 36.031 36.031">
  <path id="settings" d="M34.176,14.012H30.8a1.294,1.294,0,0,1-.915-2.209L32.273,9.42a1.857,1.857,0,0,0,0-2.624L29.235,3.758a1.9,1.9,0,0,0-2.624,0L24.228,6.141a1.252,1.252,0,0,1-.9.383,1.346,1.346,0,0,1-.91-.36,1.25,1.25,0,0,1-.4-.938V1.855A1.857,1.857,0,0,0,20.164,0h-4.3a1.857,1.857,0,0,0-1.855,1.855V5.226a1.291,1.291,0,0,1-1.308,1.3,1.255,1.255,0,0,1-.9-.383L9.419,3.758a1.9,1.9,0,0,0-2.624,0L3.757,6.8a1.856,1.856,0,0,0,0,2.624L6.141,11.8a1.294,1.294,0,0,1-.915,2.209H1.855A1.857,1.857,0,0,0,0,15.867v4.3a1.858,1.858,0,0,0,1.855,1.856H5.226a1.294,1.294,0,0,1,.915,2.209L3.758,26.611a1.856,1.856,0,0,0,0,2.624L6.8,32.273a1.9,1.9,0,0,0,2.624,0L11.8,29.89a1.252,1.252,0,0,1,.9-.383,1.291,1.291,0,0,1,1.308,1.3v3.37a1.856,1.856,0,0,0,1.854,1.856h4.3a1.857,1.857,0,0,0,1.855-1.856V30.8a1.29,1.29,0,0,1,1.308-1.3,1.256,1.256,0,0,1,.9.383l2.383,2.383a1.9,1.9,0,0,0,2.624,0l3.038-3.038a1.857,1.857,0,0,0,0-2.624l-2.383-2.383a1.294,1.294,0,0,1,.915-2.209h3.371a1.857,1.857,0,0,0,1.855-1.856v-4.3A1.857,1.857,0,0,0,34.176,14.012Zm-11.49,4a4.671,4.671,0,1,1-4.671-4.671A4.677,4.677,0,0,1,22.686,18.015Z" fill="#fff"/>
</svg>
