<svg id="pendingcontract" xmlns="http://www.w3.org/2000/svg" width="36.031" height="36.031" viewBox="0 0 36.031 36.031">
  <g id="Group_69" data-name="Group 69" transform="translate(21.057)">
    <g id="Group_68" data-name="Group 68">
      <path id="Path_31" data-name="Path 31" d="M305.576,6.152a3.147,3.147,0,0,0-.928-2.239L301.663.928A3.237,3.237,0,0,0,299.4,0h-.181V6.333h6.354V6.152Z" transform="translate(-299.222)" fill="#fff"/>
    </g>
  </g>
  <g id="Group_71" data-name="Group 71">
    <g id="Group_70" data-name="Group 70">
      <path id="Path_32" data-name="Path 32" d="M19.278,21.783a4.237,4.237,0,0,1,1.014-1.647l7.147-7.118V8.445H20.022A1.026,1.026,0,0,1,19,7.389V0H3.167A3.17,3.17,0,0,0,0,3.167v29.7a3.17,3.17,0,0,0,3.167,3.167H24.244a3.194,3.194,0,0,0,3.195-3.167V24.986l-1.16,1.132a4.2,4.2,0,0,1-1.641,1.012L21.282,28.25l-.511.028a2.639,2.639,0,0,1-2.5-3.477ZM5.278,19H15.8a1.056,1.056,0,0,1,0,2.111H5.278a1.056,1.056,0,0,1,0-2.111ZM4.222,15.834a1.055,1.055,0,0,1,1.056-1.056H15.8a1.056,1.056,0,0,1,0,2.111H5.278A1.055,1.055,0,0,1,4.222,15.834Zm0,8.445a1.055,1.055,0,0,1,1.056-1.056H15.8a1.056,1.056,0,0,1,0,2.111H5.278A1.055,1.055,0,0,1,4.222,24.278Zm15.8,5.278a1.056,1.056,0,1,1,0,2.111H13.688a1.056,1.056,0,1,1,0-2.111ZM5.278,12.667a1.056,1.056,0,1,1,0-2.111H20.022a1.056,1.056,0,1,1,0,2.111Z" fill="#fff"/>
    </g>
  </g>
  <g id="Group_73" data-name="Group 73" transform="translate(20.243 22.717)">
    <g id="Group_72" data-name="Group 72">
      <path id="Path_33" data-name="Path 33" d="M288.609,322.808l-.918,2.755a.528.528,0,0,0,.668.667l2.754-.92Z" transform="translate(-287.663 -322.808)" fill="#fff"/>
    </g>
  </g>
  <g id="Group_75" data-name="Group 75" transform="translate(22.436 14.026)">
    <g id="Group_74" data-name="Group 74">
      <path id="Path_34" data-name="Path 34" d="M325.772,199.307l-6.952,6.952,3,3,6.952-6.952Z" transform="translate(-318.82 -199.307)" fill="#fff"/>
    </g>
  </g>
  <g id="Group_77" data-name="Group 77" transform="translate(30.881 10.411)">
    <g id="Group_76" data-name="Group 76">
      <path id="Path_35" data-name="Path 35" d="M443.349,148.536a2.2,2.2,0,0,0-3,0l-1.534,1.534,3,3,1.534-1.534A2.125,2.125,0,0,0,443.349,148.536Z" transform="translate(-438.819 -147.949)" fill="#fff"/>
    </g>
  </g>
  <g id="Group_80" data-name="Group 80" transform="translate(35.412 13.976)">
    <g id="Group_79" data-name="Group 79">
      <g id="Group_78" data-name="Group 78">
        <path id="Path_36" data-name="Path 36" d="M503.215,198.814h0l.006-.006Z" transform="translate(-503.215 -198.793)" fill="#fff"/>
        <path id="Path_37" data-name="Path 37" d="M503.3,198.684l.009-.009Z" transform="translate(-503.297 -198.67)" fill="#fff"/>
        <path id="Path_38" data-name="Path 38" d="M503.436,198.607Z" transform="translate(-503.42 -198.602)" fill="#fff"/>
      </g>
    </g>
  </g>
</svg>
