<svg xmlns="http://www.w3.org/2000/svg" width="26.21" height="24.025" viewBox="0 0 26.21 24.025">
  <g id="checkmark" transform="translate(0 -0.008)">
    <path id="Path_46" data-name="Path 46" d="M12.013,24.033a12.012,12.012,0,1,1,6.48-22.126.82.82,0,0,1-.886,1.379,10.373,10.373,0,1,0,4.78,8.734c0-.342-.016-.68-.048-1.013a.819.819,0,1,1,1.63-.158q.055.578.056,1.172A12.026,12.026,0,0,1,12.013,24.033Zm0,0" fill="#62e953"/>
    <path id="Path_47" data-name="Path 47" d="M155.073,35a.813.813,0,0,1-.579-.24l-4.914-4.914a.819.819,0,0,1,1.159-1.159l4.336,4.336,11.433-11.433a.819.819,0,0,1,1.159,1.159L155.653,34.759a.821.821,0,0,1-.58.239Zm0,0" transform="translate(-141.695 -20.247)" fill="#62e953"/>
  </g>
</svg>
